<mxfile host="app.diagrams.net" modified="2023-12-20T15:44:51.095Z" agent="Mozilla/5.0 (X11; Ubuntu; Linux x86_64; rv:109.0) Gecko/20100101 Firefox/119.0" etag="4ZHby4F3PEbi31PDIlQ0" version="22.1.11" type="device">
  <diagram id="R2lEEEUBdFMjLlhIrx00" name="Page-1">
    <mxGraphModel dx="814" dy="433" grid="0" gridSize="10" guides="1" tooltips="1" connect="1" arrows="1" fold="1" page="0" pageScale="1" pageWidth="850" pageHeight="1100" background="none" math="0" shadow="0" extFonts="Permanent Marker^https://fonts.googleapis.com/css?family=Permanent+Marker">
      <root>
        <mxCell id="0" />
        <mxCell id="1" parent="0" />
        <mxCell id="u6c7SbDtrNOStJkiOF8Q-9" style="edgeStyle=orthogonalEdgeStyle;rounded=0;orthogonalLoop=1;jettySize=auto;html=1;entryX=0;entryY=0.5;entryDx=0;entryDy=0;endArrow=ERzeroToMany;endFill=0;startArrow=ERmandOne;startFill=0;fontSize=15;endSize=16;startSize=16;labelBackgroundColor=none;fontColor=default;" parent="1" source="u6c7SbDtrNOStJkiOF8Q-1" target="u6c7SbDtrNOStJkiOF8Q-3" edge="1">
          <mxGeometry relative="1" as="geometry" />
        </mxCell>
        <mxCell id="u6c7SbDtrNOStJkiOF8Q-1" value="Пользователь" style="rounded=0;whiteSpace=wrap;html=1;fontSize=15;labelBackgroundColor=none;" parent="1" vertex="1">
          <mxGeometry x="280" y="100" width="120" height="60" as="geometry" />
        </mxCell>
        <mxCell id="u6c7SbDtrNOStJkiOF8Q-17" style="edgeStyle=orthogonalEdgeStyle;rounded=0;orthogonalLoop=1;jettySize=auto;html=1;exitX=1;exitY=0.75;exitDx=0;exitDy=0;entryX=0.5;entryY=1;entryDx=0;entryDy=0;endArrow=ERzeroToMany;endFill=0;startArrow=ERmandOne;startFill=0;fontSize=15;endSize=16;startSize=16;labelBackgroundColor=none;fontColor=default;" parent="1" source="u6c7SbDtrNOStJkiOF8Q-2" target="u6c7SbDtrNOStJkiOF8Q-7" edge="1">
          <mxGeometry relative="1" as="geometry" />
        </mxCell>
        <mxCell id="SNqxivH7j_bDkj8Lk9zm-6" style="edgeStyle=orthogonalEdgeStyle;rounded=0;orthogonalLoop=1;jettySize=auto;html=1;exitX=0;exitY=0.5;exitDx=0;exitDy=0;entryX=0.5;entryY=1;entryDx=0;entryDy=0;startArrow=ERzeroToMany;startFill=0;endArrow=ERzeroToMany;endFill=0;endSize=16;startSize=16;labelBackgroundColor=none;fontColor=default;" edge="1" parent="1" source="u6c7SbDtrNOStJkiOF8Q-2" target="u6c7SbDtrNOStJkiOF8Q-1">
          <mxGeometry relative="1" as="geometry" />
        </mxCell>
        <mxCell id="SNqxivH7j_bDkj8Lk9zm-7" style="edgeStyle=orthogonalEdgeStyle;rounded=0;orthogonalLoop=1;jettySize=auto;html=1;exitX=1;exitY=0.25;exitDx=0;exitDy=0;entryX=1;entryY=0.75;entryDx=0;entryDy=0;startArrow=ERmandOne;startFill=0;endArrow=ERzeroToMany;endFill=0;endSize=16;startSize=16;labelBackgroundColor=none;fontColor=default;" edge="1" parent="1" source="u6c7SbDtrNOStJkiOF8Q-2" target="u6c7SbDtrNOStJkiOF8Q-3">
          <mxGeometry relative="1" as="geometry">
            <Array as="points">
              <mxPoint x="642" y="380" />
              <mxPoint x="642" y="145" />
            </Array>
          </mxGeometry>
        </mxCell>
        <mxCell id="u6c7SbDtrNOStJkiOF8Q-2" value="Кофейня" style="rounded=0;whiteSpace=wrap;html=1;fontSize=15;labelBackgroundColor=none;" parent="1" vertex="1">
          <mxGeometry x="470" y="365" width="120" height="60" as="geometry" />
        </mxCell>
        <mxCell id="u6c7SbDtrNOStJkiOF8Q-8" style="edgeStyle=orthogonalEdgeStyle;rounded=0;orthogonalLoop=1;jettySize=auto;html=1;entryX=0;entryY=0.25;entryDx=0;entryDy=0;endArrow=ERoneToMany;endFill=0;startArrow=ERzeroToMany;startFill=0;fontSize=15;endSize=16;startSize=16;exitX=1;exitY=0.25;exitDx=0;exitDy=0;labelBackgroundColor=none;fontColor=default;" parent="1" source="u6c7SbDtrNOStJkiOF8Q-3" target="u6c7SbDtrNOStJkiOF8Q-7" edge="1">
          <mxGeometry relative="1" as="geometry" />
        </mxCell>
        <mxCell id="u6c7SbDtrNOStJkiOF8Q-3" value="Чек (факт оплаты)" style="rounded=0;whiteSpace=wrap;html=1;fontSize=15;labelBackgroundColor=none;" parent="1" vertex="1">
          <mxGeometry x="470" y="100" width="120" height="60" as="geometry" />
        </mxCell>
        <mxCell id="SNqxivH7j_bDkj8Lk9zm-3" style="edgeStyle=orthogonalEdgeStyle;rounded=0;orthogonalLoop=1;jettySize=auto;html=1;exitX=0.5;exitY=0;exitDx=0;exitDy=0;entryX=0.5;entryY=1;entryDx=0;entryDy=0;startArrow=ERmandOne;startFill=0;endArrow=ERzeroToMany;endFill=0;endSize=16;startSize=16;labelBackgroundColor=none;fontColor=default;" edge="1" parent="1" source="u6c7SbDtrNOStJkiOF8Q-4" target="u6c7SbDtrNOStJkiOF8Q-3">
          <mxGeometry relative="1" as="geometry" />
        </mxCell>
        <mxCell id="SNqxivH7j_bDkj8Lk9zm-8" style="edgeStyle=orthogonalEdgeStyle;rounded=0;orthogonalLoop=1;jettySize=auto;html=1;exitX=0.5;exitY=1;exitDx=0;exitDy=0;entryX=0.5;entryY=0;entryDx=0;entryDy=0;endArrow=ERmandOne;endFill=0;startArrow=ERzeroToMany;startFill=0;endSize=16;startSize=16;labelBackgroundColor=none;fontColor=default;" edge="1" parent="1" source="u6c7SbDtrNOStJkiOF8Q-4" target="u6c7SbDtrNOStJkiOF8Q-2">
          <mxGeometry relative="1" as="geometry" />
        </mxCell>
        <mxCell id="u6c7SbDtrNOStJkiOF8Q-4" value="Бариста" style="rounded=0;whiteSpace=wrap;html=1;fontSize=15;labelBackgroundColor=none;" parent="1" vertex="1">
          <mxGeometry x="470" y="233" width="120" height="60" as="geometry" />
        </mxCell>
        <mxCell id="u6c7SbDtrNOStJkiOF8Q-13" style="edgeStyle=orthogonalEdgeStyle;rounded=0;orthogonalLoop=1;jettySize=auto;html=1;entryX=0.5;entryY=0;entryDx=0;entryDy=0;startArrow=ERzeroToMany;startFill=0;endArrow=ERzeroToMany;endFill=0;fontSize=15;endSize=16;startSize=16;labelBackgroundColor=none;fontColor=default;" parent="1" source="u6c7SbDtrNOStJkiOF8Q-6" target="u6c7SbDtrNOStJkiOF8Q-1" edge="1">
          <mxGeometry relative="1" as="geometry" />
        </mxCell>
        <mxCell id="u6c7SbDtrNOStJkiOF8Q-6" value="Награда" style="rounded=0;whiteSpace=wrap;html=1;fontSize=15;labelBackgroundColor=none;" parent="1" vertex="1">
          <mxGeometry x="470" y="18" width="120" height="60" as="geometry" />
        </mxCell>
        <mxCell id="SNqxivH7j_bDkj8Lk9zm-5" style="edgeStyle=orthogonalEdgeStyle;rounded=0;orthogonalLoop=1;jettySize=auto;html=1;exitX=0.5;exitY=0;exitDx=0;exitDy=0;entryX=1;entryY=0.5;entryDx=0;entryDy=0;endArrow=ERzeroToOne;endFill=0;startArrow=ERmandOne;startFill=0;endSize=16;startSize=16;labelBackgroundColor=none;fontColor=default;" edge="1" parent="1" source="u6c7SbDtrNOStJkiOF8Q-7" target="u6c7SbDtrNOStJkiOF8Q-6">
          <mxGeometry relative="1" as="geometry" />
        </mxCell>
        <mxCell id="u6c7SbDtrNOStJkiOF8Q-7" value="Товар" style="rounded=0;whiteSpace=wrap;html=1;fontSize=15;labelBackgroundColor=none;" parent="1" vertex="1">
          <mxGeometry x="660" y="100" width="120" height="60" as="geometry" />
        </mxCell>
      </root>
    </mxGraphModel>
  </diagram>
</mxfile>
